<?xml version="1.0" standalone="no"?>
<!DOCTYPE svg PUBLIC "-//W3C//DTD SVG 20010904//EN"
 "http://www.w3.org/TR/2001/REC-SVG-20010904/DTD/svg10.dtd">
<svg version="1.0" xmlns="http://www.w3.org/2000/svg"
 width="500.000000pt" height="500.000000pt" viewBox="0 0 500.000000 500.000000"
 preserveAspectRatio="xMidYMid meet">

<g transform="translate(0.000000,500.000000) scale(0.100000,-0.100000)"
fill="#000000" stroke="none">
<path d="M2124 3612 c-72 -53 -464 -469 -474 -502 -18 -61 -3 -89 114 -208 60
-62 116 -110 122 -108 8 3 11 0 8 -8 -2 -6 54 -69 125 -139 l129 -127 57 0 57
0 116 115 117 114 -163 163 -162 163 160 160 c88 88 159 163 158 166 -6 14
-183 195 -212 217 -43 32 -102 30 -152 -6z m-54 -645 c0 -2 -10 -12 -22 -23
l-23 -19 19 23 c18 21 26 27 26 19z m-80 -80 c0 -2 -10 -12 -22 -23 l-23 -19
19 23 c18 21 26 27 26 19z"/>
</g>
</svg>
